<?xml version="1.0" standalone="no"?>
<!DOCTYPE svg PUBLIC "-//W3C//DTD SVG 20010904//EN"
 "http://www.w3.org/TR/2001/REC-SVG-20010904/DTD/svg10.dtd">
<svg version="1.0" xmlns="http://www.w3.org/2000/svg"
 width="1024.000000pt" height="1024.000000pt" viewBox="0 0 1024.000000 1024.000000"
 preserveAspectRatio="xMidYMid meet">

<g transform="translate(0.000000,1024.000000) scale(0.100000,-0.100000)"
fill="#000000" stroke="none">
<path d="M8936 8604 c-27 -8 -61 -23 -75 -31 -14 -9 -1101 -1090 -2416 -2403
-2681 -2677 -2417 -2430 -2591 -2438 -109 -5 -180 12 -247 60 -25 18 -513 516
-1083 1106 -968 1001 -1041 1074 -1103 1104 -56 28 -75 33 -141 33 -136 -1
-149 -10 -506 -368 -244 -244 -318 -324 -339 -367 -51 -102 -43 -235 19 -326
12 -18 723 -765 1580 -1659 1474 -1537 1562 -1627 1624 -1657 57 -28 77 -33
142 -33 151 0 -141 -278 3087 2949 2440 2440 2895 2900 2919 2946 52 104 42
242 -24 331 -113 153 -519 663 -549 689 -77 68 -201 95 -297 64z"/>
</g>
</svg>
